<?xml version="1.0" standalone="no"?>
<!DOCTYPE svg PUBLIC "-//W3C//DTD SVG 20010904//EN"
 "http://www.w3.org/TR/2001/REC-SVG-20010904/DTD/svg10.dtd">
<svg version="1.0" xmlns="http://www.w3.org/2000/svg"
 width="360.000000pt" height="360.000000pt" viewBox="0 0 360.000000 360.000000"
 preserveAspectRatio="xMidYMid meet">

<g transform="translate(0.000000,360.000000) scale(0.100000,-0.100000)"
fill="#000000" stroke="none">
<path d="M1675 3170 c-386 -82 -617 -467 -504 -838 60 -195 219 -362 410 -429
404 -140 832 135 874 563 19 186 -65 409 -200 533 -125 115 -260 171 -430 176
-60 2 -128 0 -150 -5z"/>
<path d="M1280 1843 c-151 -104 -312 -296 -408 -488 -49 -99 -117 -297 -132
-386 -20 -113 17 -218 101 -294 23 -21 62 -47 88 -59 46 -21 49 -21 871 -21
824 0 825 0 872 22 137 63 211 203 187 352 -27 171 -150 452 -263 601 -77 103
-200 222 -291 283 l-67 45 -81 -43 c-123 -66 -218 -89 -357 -89 -142 0 -211
17 -342 83 l-98 48 -80 -54z"/>
</g>
</svg>
